<?xml version="1.0" encoding="UTF-8"?>
<svg id="Capa_1" data-name="Capa 1" xmlns="http://www.w3.org/2000/svg" viewBox="0 0 1080 1080">
  <defs>
    <style>
      .cls-1 {
        fill: #f7b91e;
      }

      .cls-1, .cls-2 {
        stroke-width: 0px;
      }

      .cls-2 {
        fill: #232323;
      }
    </style>
  </defs>
  <path class="cls-2" d="m1026.47,541.83c0,40-49.43,68.39-155.56,89.36-1.71.33-3.42.69-5.17,1.02-53.4,10.23-116.84,17.65-185.84,21.91-16.85,1.02-34.03,1.89-51.5,2.55-28.83,1.09-58.38,1.64-88.37,1.64s-59.55-.55-88.41-1.64c-17.47-.66-34.65-1.53-51.5-2.55-68.97-4.26-132.41-11.68-185.81-21.91-1.75-.33-3.49-.69-5.21-1.02-106.13-20.97-155.56-49.36-155.56-89.36,0-33.05,33.74-58.2,105.37-77.74-3.68,18.09-6.08,36.58-7.13,55.47-27.73,9.17-41.06,17.43-45.86,22.27,4.77,4.81,17.91,13,45.21,22.13,13.79,4.59,31.16,9.39,52.89,14.12,9.43,2.04,19.65,4.08,30.79,6.08,17.76,3.17,36.69,6.04,56.53,8.62,32.65,4.22,67.81,7.57,104.64,9.97,16.74,1.09,33.81,2,51.17,2.69,30.28,1.27,61.4,1.89,92.89,1.89s62.57-.62,92.85-1.89c17.36-.69,34.43-1.6,51.17-2.69,36.83-2.4,72.03-5.75,104.64-9.97,19.84-2.58,38.76-5.46,56.53-8.62,11.14-2,21.4-4.04,30.86-6.12,21.69-4.7,39.09-9.54,52.85-14.12,27.3-9.1,40.44-17.29,45.21-22.09-4.8-4.84-18.13-13.1-45.86-22.27-1.06-18.85-3.46-37.38-7.13-55.43,71.59,19.54,105.33,44.66,105.33,77.71Z"/>
  <path class="cls-2" d="m443.23,865.71c-87.24-26.02-159.71-86.32-201.71-165.31-2.79-5.25,1.57-11.48,7.46-10.64,54.2,7.78,130.91,13.82,152.38,15.39,3.34.24,6.05,2.75,6.61,6.05,9.61,56.12,24.25,106.37,43.76,144.22,2.92,5.66-2.39,12.11-8.5,10.29Z"/>
  <path class="cls-2" d="m611.89,708.2c4.64-.14,8.23,4.05,7.35,8.61-4.97,25.8-11.11,49.77-18.33,71.33-21.73,64.9-46.37,87.94-60.89,87.94s-39.2-23.04-60.89-87.94c-7.22-21.56-13.36-45.53-18.33-71.33-.88-4.56,2.71-8.74,7.36-8.61,23.51.69,47.6,1.06,71.87,1.06s48.38-.37,71.87-1.06Z"/>
  <path class="cls-2" d="m838.53,700.39c-42.04,78.99-114.47,139.3-201.74,165.33-6.1,1.82-11.42-4.63-8.5-10.29,19.5-37.85,34.12-88.09,43.73-144.2.57-3.31,3.3-5.82,6.65-6.05,21.12-1.49,95.59-7.16,152.34-15.41,5.91-.86,10.33,5.36,7.52,10.63Z"/>
  <g>
    <path class="cls-1" d="m744.71,536.26c.25,5.79-4.06,10.75-9.82,11.31-17.5,1.69-35.6,3.16-54.15,4.35-16.74,1.09-33.52,1.97-50.01,2.62-29.12,1.24-59.62,1.86-90.7,1.86s-61.62-.62-90.85-1.86c-16.38-.66-33.16-1.53-49.9-2.62-18.54-1.22-36.61-2.67-54.12-4.36-5.77-.55-10.08-5.53-9.83-11.32.71-15.91,3.71-47.42,15.82-76.04,31.12-73.56,103.98-125.18,188.88-125.18s157.53,51.47,188.71,124.86c12.31,28.96,15.29,60.47,15.97,76.37Z"/>
    <path class="cls-1" d="m285.27,540.56c-22.89-3.19-44.78-6.82-66.79-11.49-9.37-1.99-15.77-10.7-14.83-20.23,2-20.21,7.57-55.89,23.72-95.38,4.3-10.52,16.99-14.74,26.83-9.06l57.44,33.16c7.94,4.58,11.36,14.19,8.26,22.82-8.92,24.83-12.23,47.55-13.41,62.91-.83,10.8-10.49,18.75-21.22,17.26Z"/>
    <path class="cls-1" d="m422.8,337.43c-23.52,13.66-44.45,31.28-61.87,51.98-5.85,6.95-15.87,8.62-23.73,4.07l-57.06-32.96c-9.98-5.76-12.48-19.04-5.34-28.08,29-36.69,65.47-67.23,107.1-89.32,10.14-5.38,22.71-.6,26.64,10.19l22.38,61.47c3.1,8.52-.27,18.1-8.11,22.65Z"/>
    <path class="cls-1" d="m623.53,236.03l-22.27,61.25c-3.11,8.54-11.87,13.7-20.82,12.13-13.12-2.3-26.62-3.5-40.41-3.5s-27.29,1.2-40.41,3.5c-8.95,1.57-17.71-3.59-20.82-12.12l-22.3-61.23c-3.93-10.8,2.63-22.57,13.88-24.94,22.47-4.72,45.77-7.19,69.65-7.19s47.14,2.48,69.61,7.18c11.25,2.35,17.82,14.13,13.89,24.93Z"/>
    <path class="cls-1" d="m799.91,360.52l-57.09,32.97c-7.86,4.54-17.89,2.87-23.73-4.08-17.42-20.7-38.35-38.32-61.87-51.98-7.84-4.55-11.21-14.13-8.11-22.65l22.38-61.47c3.93-10.79,16.49-15.57,26.63-10.19,41.65,22.09,78.12,52.61,107.14,89.32,7.15,9.04,4.64,22.32-5.34,28.08Z"/>
    <path class="cls-1" d="m861.52,529.07c-21.85,4.65-43.85,8.3-66.66,11.47-10.85,1.51-20.58-6.57-21.37-17.49-1.57-21.84-6.2-43.04-13.42-62.89-3.11-8.54.46-18.07,8.33-22.61l57.48-33.17c9.88-5.7,22.54-1.41,26.88,9.13,12.41,30.21,20.48,62.79,23.65,95.49.92,9.47-5.58,18.09-14.88,20.07Z"/>
  </g>
</svg>